<svg width="20" height="20" viewBox="0 0 20 20" fill="none" xmlns="http://www.w3.org/2000/svg">
<path fill-rule="evenodd" clip-rule="evenodd" d="M0.104514 0.530302C0.269356 0.205006 0.603069 0 0.967747 0H5.78533C6.0936 0 6.38343 0.14687 6.56573 0.395465L11.503 7.12836L18.348 0.283445C18.7259 -0.0944817 19.3386 -0.0944817 19.7166 0.283445C20.0945 0.661372 20.0945 1.27411 19.7166 1.65204L12.6611 8.70753L19.8127 18.46C20.0283 18.7541 20.0603 19.1444 19.8955 19.4697C19.7307 19.795 19.3969 20 19.0323 20H14.2147C13.9064 20 13.6166 19.8531 13.4343 19.6045L8.49696 12.8716L1.65204 19.7166C1.27412 20.0945 0.661376 20.0945 0.28345 19.7166C-0.0944771 19.3386 -0.0944771 18.7259 0.28345 18.348L7.33894 11.2925L0.187347 1.54002C-0.0283064 1.24594 -0.0603282 0.855597 0.104514 0.530302ZM10.5529 9.10567C10.5847 9.15945 10.6222 9.21082 10.6653 9.25891L17.1225 18.0645H14.7051L2.87746 1.93548H5.29493L10.5529 9.10567Z" fill="white"/>
</svg>
